<mxfile host="www.draw.io" modified="2020-02-11T19:12:51.686Z" agent="Mozilla/5.0 (Windows NT 10.0; Win64; x64) AppleWebKit/537.36 (KHTML, like Gecko) Chrome/79.0.3945.130 Safari/537.36" etag="_7qre52JoQ-sOc0o3Yfj" version="12.6.7" type="github">
  <diagram name="Page-1" id="c7488fd3-1785-93aa-aadb-54a6760d102a">
    <mxGraphModel dx="1102" dy="482" grid="1" gridSize="10" guides="1" tooltips="1" connect="1" arrows="1" fold="1" page="1" pageScale="1" pageWidth="1100" pageHeight="850" background="#ffffff" math="0" shadow="0">
      <root>
        <mxCell id="0"/>
        <mxCell id="1" parent="0"/>
        <mxCell id="2b4e8129b02d487f-1" value="" style="swimlane;html=1;childLayout=stackLayout;horizontal=1;startSize=20;horizontalStack=0;rounded=0;shadow=0;labelBackgroundColor=none;strokeWidth=1;fontFamily=Verdana;fontSize=8;align=center;" parent="1" vertex="1">
          <mxGeometry x="180" y="70" width="920" height="600" as="geometry">
            <mxRectangle x="180" y="70" width="50" height="40" as="alternateBounds"/>
          </mxGeometry>
        </mxCell>
        <mxCell id="2b4e8129b02d487f-2" value="Funcionários" style="swimlane;html=1;startSize=20;horizontal=0;" parent="2b4e8129b02d487f-1" vertex="1">
          <mxGeometry y="20" width="920" height="150" as="geometry">
            <mxRectangle y="20" width="680" height="20" as="alternateBounds"/>
          </mxGeometry>
        </mxCell>
        <mxCell id="2b4e8129b02d487f-18" style="edgeStyle=orthogonalEdgeStyle;rounded=0;html=1;labelBackgroundColor=none;startArrow=none;startFill=0;startSize=5;endArrow=classicThin;endFill=1;endSize=5;jettySize=auto;orthogonalLoop=1;strokeWidth=1;fontFamily=Verdana;fontSize=8" parent="2b4e8129b02d487f-2" source="2b4e8129b02d487f-5" target="2b4e8129b02d487f-6" edge="1">
          <mxGeometry relative="1" as="geometry"/>
        </mxCell>
        <mxCell id="2b4e8129b02d487f-5" value="Início" style="ellipse;whiteSpace=wrap;html=1;rounded=0;shadow=0;labelBackgroundColor=none;strokeWidth=1;fontFamily=Verdana;fontSize=8;align=center;" parent="2b4e8129b02d487f-2" vertex="1">
          <mxGeometry x="50" y="68.25" width="30" height="30" as="geometry"/>
        </mxCell>
        <mxCell id="2b4e8129b02d487f-6" value="Pesquisar e elaborar o conteúdo" style="rounded=1;whiteSpace=wrap;html=1;shadow=0;labelBackgroundColor=none;strokeWidth=1;fontFamily=Verdana;fontSize=8;align=center;" parent="2b4e8129b02d487f-2" vertex="1">
          <mxGeometry x="120" y="56.5" width="100" height="53.5" as="geometry"/>
        </mxCell>
        <mxCell id="-MDUBQ47qq7bkylrePRb-7" value="" style="shape=mxgraph.bpmn.manual_task;html=1;outlineConnect=0;" parent="2b4e8129b02d487f-2" vertex="1">
          <mxGeometry x="126" y="60" width="14" height="14" as="geometry"/>
        </mxCell>
        <mxCell id="-MDUBQ47qq7bkylrePRb-18" value="Montar ebook" style="rounded=1;whiteSpace=wrap;html=1;shadow=0;labelBackgroundColor=none;strokeWidth=1;fontFamily=Verdana;fontSize=8;align=center;" parent="2b4e8129b02d487f-2" vertex="1">
          <mxGeometry x="480" y="74" width="100" height="53.5" as="geometry"/>
        </mxCell>
        <mxCell id="-MDUBQ47qq7bkylrePRb-21" value="" style="shape=mxgraph.bpmn.manual_task;html=1;outlineConnect=0;" parent="2b4e8129b02d487f-2" vertex="1">
          <mxGeometry x="485" y="76" width="14" height="14" as="geometry"/>
        </mxCell>
        <mxCell id="-MDUBQ47qq7bkylrePRb-19" style="edgeStyle=orthogonalEdgeStyle;rounded=0;orthogonalLoop=1;jettySize=auto;html=1;entryX=0;entryY=0.5;entryDx=0;entryDy=0;" parent="2b4e8129b02d487f-1" source="-MDUBQ47qq7bkylrePRb-13" target="-MDUBQ47qq7bkylrePRb-18" edge="1">
          <mxGeometry relative="1" as="geometry"/>
        </mxCell>
        <mxCell id="-MDUBQ47qq7bkylrePRb-68" value="Sim" style="text;html=1;align=center;verticalAlign=middle;resizable=0;points=[];labelBackgroundColor=#ffffff;" parent="-MDUBQ47qq7bkylrePRb-19" vertex="1" connectable="0">
          <mxGeometry x="-0.5343" y="16" relative="1" as="geometry">
            <mxPoint x="-26.67" y="7.250000000000002" as="offset"/>
          </mxGeometry>
        </mxCell>
        <mxCell id="2b4e8129b02d487f-3" value="Líder" style="swimlane;html=1;startSize=20;horizontal=0;" parent="2b4e8129b02d487f-1" vertex="1">
          <mxGeometry y="170" width="920" height="150" as="geometry">
            <mxRectangle y="170" width="680" height="20" as="alternateBounds"/>
          </mxGeometry>
        </mxCell>
        <mxCell id="-MDUBQ47qq7bkylrePRb-13" value="Está coerente com o assunto?" style="shape=mxgraph.bpmn.shape;html=1;verticalLabelPosition=bottom;labelBackgroundColor=#ffffff;verticalAlign=top;align=center;perimeter=rhombusPerimeter;background=gateway;outlineConnect=0;outline=none;symbol=exclusiveGw;" parent="2b4e8129b02d487f-3" vertex="1">
          <mxGeometry x="270" y="30.5" width="50" height="50" as="geometry"/>
        </mxCell>
        <mxCell id="-MDUBQ47qq7bkylrePRb-25" value="O formato está correto?" style="shape=mxgraph.bpmn.shape;html=1;verticalLabelPosition=bottom;labelBackgroundColor=#ffffff;verticalAlign=top;align=center;perimeter=rhombusPerimeter;background=gateway;outlineConnect=0;outline=none;symbol=exclusiveGw;" parent="2b4e8129b02d487f-3" vertex="1">
          <mxGeometry x="750" y="21.75" width="50" height="50" as="geometry"/>
        </mxCell>
        <mxCell id="2b4e8129b02d487f-7" value="Avaliar contéudo" style="rounded=1;whiteSpace=wrap;html=1;shadow=0;labelBackgroundColor=none;strokeWidth=1;fontFamily=Verdana;fontSize=8;align=center;" parent="2b4e8129b02d487f-3" vertex="1">
          <mxGeometry x="135" y="32" width="70" height="47" as="geometry"/>
        </mxCell>
        <mxCell id="-MDUBQ47qq7bkylrePRb-23" style="edgeStyle=orthogonalEdgeStyle;rounded=0;orthogonalLoop=1;jettySize=auto;html=1;exitX=0;exitY=0.5;exitDx=0;exitDy=0;entryX=1;entryY=0.5;entryDx=0;entryDy=0;" parent="2b4e8129b02d487f-3" source="-MDUBQ47qq7bkylrePRb-13" target="2b4e8129b02d487f-7" edge="1">
          <mxGeometry relative="1" as="geometry"/>
        </mxCell>
        <mxCell id="-MDUBQ47qq7bkylrePRb-79" style="edgeStyle=orthogonalEdgeStyle;rounded=0;orthogonalLoop=1;jettySize=auto;html=1;exitX=1;exitY=0.5;exitDx=0;exitDy=0;entryX=0;entryY=0.5;entryDx=0;entryDy=0;" parent="2b4e8129b02d487f-3" source="-MDUBQ47qq7bkylrePRb-54" target="-MDUBQ47qq7bkylrePRb-25" edge="1">
          <mxGeometry relative="1" as="geometry"/>
        </mxCell>
        <mxCell id="-MDUBQ47qq7bkylrePRb-54" value="Avaliar formatação." style="rounded=1;whiteSpace=wrap;html=1;shadow=0;labelBackgroundColor=none;strokeWidth=1;fontFamily=Verdana;fontSize=8;align=center;" parent="2b4e8129b02d487f-3" vertex="1">
          <mxGeometry x="630" y="20" width="70" height="53.5" as="geometry"/>
        </mxCell>
        <mxCell id="-MDUBQ47qq7bkylrePRb-56" value="" style="shape=mxgraph.bpmn.manual_task;html=1;outlineConnect=0;" parent="2b4e8129b02d487f-3" vertex="1">
          <mxGeometry x="635" y="23" width="14" height="14" as="geometry"/>
        </mxCell>
        <mxCell id="-MDUBQ47qq7bkylrePRb-69" value="" style="shape=mxgraph.bpmn.manual_task;html=1;outlineConnect=0;" parent="2b4e8129b02d487f-3" vertex="1">
          <mxGeometry x="139" y="37" width="14" height="14" as="geometry"/>
        </mxCell>
        <mxCell id="2b4e8129b02d487f-24" style="edgeStyle=orthogonalEdgeStyle;rounded=0;html=1;labelBackgroundColor=none;startArrow=none;startFill=0;startSize=5;endArrow=classicThin;endFill=1;endSize=5;jettySize=auto;orthogonalLoop=1;strokeWidth=1;fontFamily=Verdana;fontSize=8" parent="2b4e8129b02d487f-1" source="2b4e8129b02d487f-6" target="2b4e8129b02d487f-7" edge="1">
          <mxGeometry relative="1" as="geometry">
            <mxPoint x="170" y="220" as="targetPoint"/>
          </mxGeometry>
        </mxCell>
        <mxCell id="-MDUBQ47qq7bkylrePRb-64" style="edgeStyle=orthogonalEdgeStyle;rounded=0;orthogonalLoop=1;jettySize=auto;html=1;exitX=0.5;exitY=0;exitDx=0;exitDy=0;entryX=1;entryY=0.5;entryDx=0;entryDy=0;" parent="2b4e8129b02d487f-1" source="-MDUBQ47qq7bkylrePRb-13" target="2b4e8129b02d487f-6" edge="1">
          <mxGeometry relative="1" as="geometry"/>
        </mxCell>
        <mxCell id="-MDUBQ47qq7bkylrePRb-65" value="Não" style="text;html=1;align=center;verticalAlign=middle;resizable=0;points=[];labelBackgroundColor=#ffffff;" parent="-MDUBQ47qq7bkylrePRb-64" vertex="1" connectable="0">
          <mxGeometry x="-0.7818" y="-1" relative="1" as="geometry">
            <mxPoint x="14" y="4.42" as="offset"/>
          </mxGeometry>
        </mxCell>
        <mxCell id="-MDUBQ47qq7bkylrePRb-55" style="edgeStyle=orthogonalEdgeStyle;rounded=0;orthogonalLoop=1;jettySize=auto;html=1;" parent="2b4e8129b02d487f-1" source="-MDUBQ47qq7bkylrePRb-18" target="-MDUBQ47qq7bkylrePRb-54" edge="1">
          <mxGeometry relative="1" as="geometry"/>
        </mxCell>
        <mxCell id="-MDUBQ47qq7bkylrePRb-74" style="edgeStyle=orthogonalEdgeStyle;rounded=0;orthogonalLoop=1;jettySize=auto;html=1;exitX=0.5;exitY=0;exitDx=0;exitDy=0;entryX=0.5;entryY=0;entryDx=0;entryDy=0;" parent="2b4e8129b02d487f-1" source="-MDUBQ47qq7bkylrePRb-25" target="-MDUBQ47qq7bkylrePRb-18" edge="1">
          <mxGeometry relative="1" as="geometry"/>
        </mxCell>
        <mxCell id="-MDUBQ47qq7bkylrePRb-75" value="Não" style="text;html=1;align=center;verticalAlign=middle;resizable=0;points=[];labelBackgroundColor=#ffffff;" parent="-MDUBQ47qq7bkylrePRb-74" vertex="1" connectable="0">
          <mxGeometry x="-0.8538" relative="1" as="geometry">
            <mxPoint x="15" y="20.75" as="offset"/>
          </mxGeometry>
        </mxCell>
        <mxCell id="-MDUBQ47qq7bkylrePRb-82" style="edgeStyle=orthogonalEdgeStyle;rounded=0;orthogonalLoop=1;jettySize=auto;html=1;exitX=0;exitY=0.5;exitDx=0;exitDy=0;entryX=0.5;entryY=1;entryDx=0;entryDy=0;" parent="2b4e8129b02d487f-1" source="-MDUBQ47qq7bkylrePRb-40" target="-MDUBQ47qq7bkylrePRb-18" edge="1">
          <mxGeometry relative="1" as="geometry">
            <Array as="points">
              <mxPoint x="530" y="460"/>
            </Array>
          </mxGeometry>
        </mxCell>
        <mxCell id="-MDUBQ47qq7bkylrePRb-85" style="edgeStyle=orthogonalEdgeStyle;rounded=0;orthogonalLoop=1;jettySize=auto;html=1;entryX=0.5;entryY=0;entryDx=0;entryDy=0;" parent="2b4e8129b02d487f-1" source="-MDUBQ47qq7bkylrePRb-25" target="-MDUBQ47qq7bkylrePRb-84" edge="1">
          <mxGeometry relative="1" as="geometry"/>
        </mxCell>
        <mxCell id="-MDUBQ47qq7bkylrePRb-86" value="Sim" style="text;html=1;align=center;verticalAlign=middle;resizable=0;points=[];labelBackgroundColor=#ffffff;" parent="-MDUBQ47qq7bkylrePRb-85" vertex="1" connectable="0">
          <mxGeometry x="-0.2691" y="1" relative="1" as="geometry">
            <mxPoint x="14" as="offset"/>
          </mxGeometry>
        </mxCell>
        <mxCell id="-MDUBQ47qq7bkylrePRb-89" style="edgeStyle=orthogonalEdgeStyle;rounded=0;orthogonalLoop=1;jettySize=auto;html=1;entryX=0.5;entryY=0;entryDx=0;entryDy=0;" parent="2b4e8129b02d487f-1" source="-MDUBQ47qq7bkylrePRb-40" target="2b4e8129b02d487f-6" edge="1">
          <mxGeometry relative="1" as="geometry">
            <Array as="points">
              <mxPoint x="880" y="460"/>
              <mxPoint x="880" y="57"/>
              <mxPoint x="170" y="57"/>
            </Array>
          </mxGeometry>
        </mxCell>
        <mxCell id="2b4e8129b02d487f-4" value="Gestor" style="swimlane;html=1;startSize=20;horizontal=0;" parent="2b4e8129b02d487f-1" vertex="1">
          <mxGeometry y="320" width="920" height="280" as="geometry">
            <mxRectangle y="190" width="680" height="20" as="alternateBounds"/>
          </mxGeometry>
        </mxCell>
        <mxCell id="-MDUBQ47qq7bkylrePRb-39" style="edgeStyle=orthogonalEdgeStyle;rounded=0;orthogonalLoop=1;jettySize=auto;html=1;entryX=1;entryY=0.5;entryDx=0;entryDy=0;" parent="2b4e8129b02d487f-4" source="-MDUBQ47qq7bkylrePRb-33" target="-MDUBQ47qq7bkylrePRb-35" edge="1">
          <mxGeometry relative="1" as="geometry"/>
        </mxCell>
        <mxCell id="-MDUBQ47qq7bkylrePRb-83" value="Ebook publicado." style="text;html=1;align=center;verticalAlign=middle;resizable=0;points=[];labelBackgroundColor=#ffffff;" parent="-MDUBQ47qq7bkylrePRb-39" vertex="1" connectable="0">
          <mxGeometry x="0.297" relative="1" as="geometry">
            <mxPoint x="14.67" y="-11" as="offset"/>
          </mxGeometry>
        </mxCell>
        <mxCell id="-MDUBQ47qq7bkylrePRb-33" value="Publicar ebook." style="shape=ext;rounded=1;html=1;whiteSpace=wrap;" parent="2b4e8129b02d487f-4" vertex="1">
          <mxGeometry x="300" y="180" width="110" height="60" as="geometry"/>
        </mxCell>
        <mxCell id="-MDUBQ47qq7bkylrePRb-34" value="" style="shape=mxgraph.bpmn.service_task;html=1;outlineConnect=0;" parent="2b4e8129b02d487f-4" vertex="1">
          <mxGeometry x="310" y="185" width="14" height="14" as="geometry"/>
        </mxCell>
        <mxCell id="-MDUBQ47qq7bkylrePRb-35" value="Fim" style="shape=mxgraph.bpmn.shape;html=1;verticalLabelPosition=bottom;labelBackgroundColor=#ffffff;verticalAlign=top;align=center;perimeter=ellipsePerimeter;outlineConnect=0;outline=end;symbol=general;" parent="2b4e8129b02d487f-4" vertex="1">
          <mxGeometry x="110" y="185" width="50" height="50" as="geometry"/>
        </mxCell>
        <mxCell id="-MDUBQ47qq7bkylrePRb-44" style="edgeStyle=orthogonalEdgeStyle;rounded=0;orthogonalLoop=1;jettySize=auto;html=1;exitX=0.5;exitY=1;exitDx=0;exitDy=0;entryX=1;entryY=0.5;entryDx=0;entryDy=0;" parent="2b4e8129b02d487f-4" source="-MDUBQ47qq7bkylrePRb-40" target="-MDUBQ47qq7bkylrePRb-33" edge="1">
          <mxGeometry relative="1" as="geometry"/>
        </mxCell>
        <mxCell id="-MDUBQ47qq7bkylrePRb-40" value="" style="shape=mxgraph.bpmn.shape;html=1;verticalLabelPosition=bottom;labelBackgroundColor=#ffffff;verticalAlign=top;align=center;perimeter=rhombusPerimeter;background=gateway;outlineConnect=0;outline=none;symbol=parallelGw;" parent="2b4e8129b02d487f-4" vertex="1">
          <mxGeometry x="640" y="115" width="50" height="50" as="geometry"/>
        </mxCell>
        <mxCell id="-MDUBQ47qq7bkylrePRb-45" value="Formato e conteúdo aprovados." style="text;html=1;align=center;verticalAlign=middle;resizable=0;points=[];autosize=1;" parent="2b4e8129b02d487f-4" vertex="1">
          <mxGeometry x="430" y="190" width="190" height="20" as="geometry"/>
        </mxCell>
        <mxCell id="-MDUBQ47qq7bkylrePRb-47" value="Formato rejeitado." style="text;html=1;align=center;verticalAlign=middle;resizable=0;points=[];autosize=1;" parent="2b4e8129b02d487f-4" vertex="1">
          <mxGeometry x="528" y="118" width="120" height="20" as="geometry"/>
        </mxCell>
        <mxCell id="-MDUBQ47qq7bkylrePRb-87" style="edgeStyle=orthogonalEdgeStyle;rounded=0;orthogonalLoop=1;jettySize=auto;html=1;entryX=0.5;entryY=0;entryDx=0;entryDy=0;" parent="2b4e8129b02d487f-4" source="-MDUBQ47qq7bkylrePRb-84" target="-MDUBQ47qq7bkylrePRb-40" edge="1">
          <mxGeometry relative="1" as="geometry"/>
        </mxCell>
        <mxCell id="-MDUBQ47qq7bkylrePRb-84" value="Avaliar formatação e conteúdo." style="rounded=1;whiteSpace=wrap;html=1;shadow=0;labelBackgroundColor=none;strokeWidth=1;fontFamily=Verdana;fontSize=8;align=center;" parent="2b4e8129b02d487f-4" vertex="1">
          <mxGeometry x="740" y="25.5" width="70" height="53.5" as="geometry"/>
        </mxCell>
        <mxCell id="-MDUBQ47qq7bkylrePRb-90" value="Conteúdo rejeitado." style="text;html=1;align=center;verticalAlign=middle;resizable=0;points=[];autosize=1;" parent="2b4e8129b02d487f-4" vertex="1">
          <mxGeometry x="690" y="118" width="120" height="20" as="geometry"/>
        </mxCell>
        <mxCell id="-MDUBQ47qq7bkylrePRb-91" value="O formato está correto?" style="shape=mxgraph.bpmn.shape;html=1;verticalLabelPosition=bottom;labelBackgroundColor=#ffffff;verticalAlign=top;align=center;perimeter=rhombusPerimeter;background=gateway;outlineConnect=0;outline=none;symbol=exclusiveGw;" parent="2b4e8129b02d487f-4" vertex="1">
          <mxGeometry x="640" y="115" width="50" height="50" as="geometry"/>
        </mxCell>
        <mxCell id="-MDUBQ47qq7bkylrePRb-6" value="Desenvolver um capitulo do ebook" style="swimlane;startSize=20;horizontal=0;" parent="1" vertex="1">
          <mxGeometry x="160" y="70" width="940" height="600" as="geometry"/>
        </mxCell>
      </root>
    </mxGraphModel>
  </diagram>
</mxfile>
